<svg width="188" height="32" viewBox="0 0 188 32" fill="none" xmlns="http://www.w3.org/2000/svg">
<path d="M90.0191 0.567525H132.453V7.11596H90.0191V0.567525Z" fill="url(#paint0_linear_5_2831)"/>
<path d="M0 31.5634V16.1965C0 13.038 2.56047 10.4775 5.71896 10.4775V31.5634H0ZM13.7517 31.5634V19.1214C13.7517 17.899 13.3588 16.9532 12.573 16.2838C11.8163 15.5853 10.8704 15.236 9.73533 15.236C8.97863 15.236 8.29468 15.3961 7.68349 15.7162C7.07231 16.0073 6.59209 16.4438 6.24284 17.0259C5.89359 17.608 5.71896 18.3065 5.71896 19.1214L3.4925 18.03C3.4925 16.4002 3.84175 14.9886 4.54025 13.7954C5.26785 12.6021 6.24284 11.6853 7.46521 11.045C8.68759 10.3756 10.07 10.0409 11.6126 10.0409C13.0678 10.0409 14.392 10.3756 15.5853 11.045C16.7785 11.6853 17.7244 12.6021 18.4229 13.7954C19.1214 14.9595 19.4707 16.3711 19.4707 18.03V31.5634H13.7517ZM27.5034 31.5634V19.1214C27.5034 17.899 27.1105 16.9532 26.3247 16.2838C25.568 15.5853 24.6221 15.236 23.487 15.236C22.7594 15.236 22.0755 15.3961 21.4352 15.7162C20.824 16.0073 20.3438 16.4438 19.9945 17.0259C19.6453 17.608 19.4707 18.3065 19.4707 19.1214L16.1965 18.3356C16.3129 16.6476 16.764 15.1924 17.5498 13.97C18.3356 12.7185 19.3688 11.7581 20.6494 11.0887C21.93 10.3902 23.3561 10.0409 24.9277 10.0409C26.4993 10.0409 27.9109 10.3756 29.1623 11.045C30.4138 11.6853 31.4034 12.6166 32.131 13.839C32.8586 15.0614 33.2224 16.5166 33.2224 18.2046V31.5634H27.5034Z" fill="white"/>
<path d="M47.9427 32C45.7308 32 43.7663 31.5343 42.0491 30.603C40.332 29.6426 38.9641 28.3329 37.9454 26.6739C36.9559 25.015 36.4611 23.1232 36.4611 20.9986C36.4611 18.9031 36.9413 17.0405 37.9018 15.4106C38.8913 13.7517 40.2301 12.442 41.9181 11.4816C43.6062 10.492 45.4834 9.99727 47.5498 9.99727C49.5871 9.99727 51.377 10.4629 52.9195 11.3943C54.4911 12.2965 55.7135 13.548 56.5866 15.1487C57.4889 16.7203 57.94 18.5102 57.94 20.5184C57.94 20.8968 57.9109 21.2897 57.8527 21.6971C57.8236 22.0755 57.7508 22.5121 57.6344 23.0068L39.91 23.0505V18.7722L54.9714 18.7285L52.6576 20.5184C52.5994 19.2669 52.3665 18.2192 51.9591 17.3752C51.5807 16.5312 51.0132 15.8909 50.2565 15.4543C49.5289 14.9886 48.6266 14.7558 47.5498 14.7558C46.4147 14.7558 45.4252 15.0177 44.5812 15.5416C43.7372 16.0364 43.0823 16.7494 42.6166 17.6808C42.1801 18.583 41.9618 19.6598 41.9618 20.9113C41.9618 22.1919 42.1946 23.3124 42.6603 24.2729C43.1551 25.2042 43.8536 25.9318 44.7558 26.4557C45.658 26.9504 46.7058 27.1978 47.899 27.1978C48.9759 27.1978 49.9509 27.0232 50.824 26.6739C51.6971 26.2956 52.4538 25.7426 53.0941 25.015L56.4557 28.3765C55.437 29.5698 54.1855 30.472 52.7012 31.0832C51.246 31.6944 49.6598 32 47.9427 32Z" fill="white"/>
<path d="M70.3827 32C68.4327 32 66.6864 31.5198 65.1439 30.5593C63.6014 29.5989 62.379 28.2892 61.4768 26.6303C60.6037 24.9714 60.1671 23.1087 60.1671 21.0423C60.1671 18.9468 60.6037 17.0696 61.4768 15.4106C62.379 13.7517 63.5869 12.442 65.1003 11.4816C66.6428 10.5211 68.4036 10.0409 70.3827 10.0409C71.8961 10.0409 73.2494 10.3465 74.4427 10.9577C75.6651 11.5689 76.6401 12.4275 77.3677 13.5334C78.1244 14.6103 78.5318 15.8327 78.59 17.2005V24.7094C78.5318 26.0773 78.1389 27.3142 77.4113 28.4202C76.6837 29.5261 75.7087 30.3993 74.4864 31.0396C73.264 31.6799 71.8961 32 70.3827 32ZM71.3431 26.7176C72.42 26.7176 73.3513 26.4848 74.1371 26.0191C74.952 25.5243 75.5778 24.8549 76.0143 24.0109C76.48 23.1378 76.7128 22.1337 76.7128 20.9986C76.7128 19.8927 76.48 18.9177 76.0143 18.0737C75.5778 17.2005 74.952 16.5312 74.1371 16.0655C73.3513 15.5707 72.4345 15.3233 71.3868 15.3233C70.3099 15.3233 69.364 15.5707 68.5491 16.0655C67.7633 16.5603 67.1376 17.2297 66.6719 18.0737C66.2353 18.9177 66.0171 19.8927 66.0171 20.9986C66.0171 22.1337 66.2353 23.1378 66.6719 24.0109C67.1376 24.8549 67.7779 25.5243 68.5928 26.0191C69.4077 26.4848 70.3245 26.7176 71.3431 26.7176ZM82.0825 31.5634H76.4072V25.8881L77.324 20.7367L76.3636 15.6726V0H82.0825V31.5634Z" fill="white"/>
<path d="M87.1419 31.5634V16.2401C87.1419 13.0575 89.7219 10.4775 92.9045 10.4775V31.5634H87.1419ZM90.0232 7.07231C89.0919 7.07231 88.3206 6.76671 87.7094 6.15553C87.0982 5.51523 86.7926 4.72942 86.7926 3.79809C86.7926 2.89586 87.0982 2.1246 87.7094 1.48431C88.3206 0.844021 89.0919 0.523876 90.0232 0.523876C90.9836 0.523876 91.7549 0.844021 92.337 1.48431C92.9482 2.1246 93.2537 2.89586 93.2537 3.79809C93.2537 4.72942 92.9482 5.51523 92.337 6.15553C91.7549 6.76671 90.9836 7.07231 90.0232 7.07231Z" fill="white"/>
<path d="M106.789 32C104.868 32 103.137 31.5198 101.594 30.5593C100.052 29.5989 98.8438 28.2892 97.9707 26.6303C97.0975 24.9714 96.661 23.1087 96.661 21.0423C96.661 18.9468 97.0975 17.0696 97.9707 15.4106C98.8438 13.7517 100.052 12.442 101.594 11.4816C103.137 10.5211 104.868 10.0409 106.789 10.0409C108.303 10.0409 109.656 10.3465 110.849 10.9577C112.043 11.5689 112.988 12.4275 113.687 13.5334C114.415 14.6103 114.807 15.8327 114.866 17.2005V24.7967C114.807 26.1937 114.415 27.4307 113.687 28.5075C112.988 29.5844 112.043 30.4429 110.849 31.0832C109.656 31.6944 108.303 32 106.789 32ZM107.837 26.7176C109.438 26.7176 110.733 26.1937 111.722 25.146C112.712 24.0691 113.207 22.6867 113.207 20.9986C113.207 19.8927 112.974 18.9177 112.508 18.0737C112.072 17.2005 111.446 16.5312 110.631 16.0655C109.845 15.5707 108.914 15.3233 107.837 15.3233C106.789 15.3233 105.858 15.5707 105.043 16.0655C104.257 16.5312 103.631 17.2005 103.166 18.0737C102.729 18.9177 102.511 19.8927 102.511 20.9986C102.511 22.1337 102.729 23.1378 103.166 24.0109C103.631 24.8549 104.257 25.5243 105.043 26.0191C105.858 26.4848 106.789 26.7176 107.837 26.7176ZM112.901 31.5634V25.8881L113.818 20.7367L112.901 15.6726V10.4775H118.576V31.5634H112.901Z" fill="white"/>
<path d="M132.454 31.5634C129.296 31.5634 126.735 29.003 126.735 25.8445V0.567525H132.454V31.5634ZM121.802 15.498V10.4775H137.387V15.498H121.802Z" fill="white"/>
<path d="M150.002 32C147.877 32 145.957 31.5198 144.239 30.5593C142.551 29.5698 141.198 28.2456 140.179 26.5866C139.19 24.8986 138.695 23.0214 138.695 20.955C138.695 18.8886 139.19 17.0405 140.179 15.4106C141.169 13.7517 142.522 12.442 144.239 11.4816C145.957 10.492 147.863 9.99727 149.958 9.99727C152.112 9.99727 154.033 10.492 155.721 11.4816C157.438 12.442 158.791 13.7517 159.781 15.4106C160.771 17.0405 161.265 18.8886 161.265 20.955C161.265 23.0214 160.771 24.8986 159.781 26.5866C158.791 28.2456 157.438 29.5698 155.721 30.5593C154.033 31.5198 152.127 32 150.002 32ZM149.958 26.6739C151.035 26.6739 151.981 26.4411 152.796 25.9754C153.64 25.4807 154.28 24.8113 154.717 23.9673C155.183 23.0941 155.415 22.1046 155.415 20.9986C155.415 19.8927 155.183 18.9177 154.717 18.0737C154.251 17.2297 153.611 16.5748 152.796 16.1091C151.981 15.6144 151.035 15.367 149.958 15.367C148.911 15.367 147.979 15.6144 147.164 16.1091C146.349 16.5748 145.709 17.2297 145.244 18.0737C144.778 18.9177 144.545 19.8927 144.545 20.9986C144.545 22.1046 144.778 23.0941 145.244 23.9673C145.709 24.8113 146.349 25.4807 147.164 25.9754C147.979 26.4411 148.911 26.6739 149.958 26.6739Z" fill="white"/>
<path d="M164.947 31.5634V16.1965C164.947 13.038 167.508 10.4775 170.666 10.4775V31.5634H164.947ZM170.666 19.9072L168.44 18.4229C168.702 15.8327 169.458 13.7954 170.71 12.3111C171.961 10.7976 173.766 10.0409 176.123 10.0409C177.142 10.0409 178.059 10.2156 178.873 10.5648C179.688 10.8849 180.431 11.4234 181.1 12.1801L177.52 16.2838C177.2 15.9345 176.807 15.6726 176.341 15.498C175.905 15.3233 175.396 15.236 174.813 15.236C173.591 15.236 172.587 15.6289 171.801 16.4147C171.044 17.1714 170.666 18.3356 170.666 19.9072Z" fill="white"/>
<path d="M184.395 32C183.347 32 182.488 31.6507 181.819 30.9523C181.149 30.2538 180.815 29.3952 180.815 28.3765C180.815 27.3579 181.149 26.4993 181.819 25.8008C182.488 25.1023 183.347 24.7531 184.395 24.7531C185.413 24.7531 186.257 25.1023 186.927 25.8008C187.596 26.4993 187.931 27.3579 187.931 28.3765C187.931 29.3952 187.596 30.2538 186.927 30.9523C186.257 31.6507 185.413 32 184.395 32Z" fill="white"/>
<defs>
<linearGradient id="paint0_linear_5_2831" x1="0" y1="16" x2="187.931" y2="16" gradientUnits="userSpaceOnUse">
<stop stop-color="white"/>
<stop offset="1" stop-color="white" stop-opacity="0"/>
</linearGradient>
</defs>
</svg>
