<svg width="14" height="14" viewBox="0 0 14 14" fill="none" xmlns="http://www.w3.org/2000/svg">
<g id="copy-01">
<path id="Vector" d="M5.25 8.75C5.25 7.1001 5.25 6.27515 5.76256 5.76256C6.27515 5.25 7.1001 5.25 8.75 5.25H9.33333C10.9832 5.25 11.8082 5.25 12.3208 5.76256C12.8333 6.27515 12.8333 7.1001 12.8333 8.75V9.33333C12.8333 10.9832 12.8333 11.8082 12.3208 12.3208C11.8082 12.8333 10.9832 12.8333 9.33333 12.8333H8.75C7.1001 12.8333 6.27515 12.8333 5.76256 12.3208C5.25 11.8082 5.25 10.9832 5.25 9.33333V8.75Z" stroke="#FAFCFF" stroke-opacity="0.5" stroke-width="0.875" stroke-linecap="round" stroke-linejoin="round"/>
<path id="Vector_2" d="M9.91663 5.24999C9.91523 3.52502 9.88915 2.63153 9.38702 2.01974C9.29007 1.90159 9.18174 1.79326 9.06362 1.6963C8.41822 1.16666 7.4594 1.16666 5.54169 1.16666C3.62399 1.16666 2.66514 1.16666 2.01977 1.6963C1.90162 1.79326 1.79329 1.90159 1.69633 2.01974C1.16669 2.66511 1.16669 3.62396 1.16669 5.54166C1.16669 7.45936 1.16669 8.41819 1.69633 9.06359C1.79329 9.18171 1.90162 9.29004 2.01977 9.38699C2.63156 9.88912 3.52505 9.9152 5.25002 9.9166" stroke="#FAFCFF" stroke-opacity="0.5" stroke-width="0.875" stroke-linecap="round" stroke-linejoin="round"/>
</g>
</svg>
